<mxfile host="Electron" modified="2025-04-04T08:11:12.784Z" agent="Mozilla/5.0 (Windows NT 10.0; Win64; x64) AppleWebKit/537.36 (KHTML, like Gecko) draw.io/24.5.3 Chrome/124.0.6367.207 Electron/30.0.6 Safari/537.36" etag="D_9PSA_ag6ouvj-knq1-" version="24.5.3" type="device">
  <diagram name="Seite-1" id="tQ0ftKxHk6KphrgHs4fO">
    <mxGraphModel dx="988" dy="592" grid="1" gridSize="10" guides="1" tooltips="1" connect="1" arrows="1" fold="1" page="1" pageScale="1" pageWidth="827" pageHeight="1169" math="0" shadow="0">
      <root>
        <mxCell id="0" />
        <mxCell id="1" parent="0" />
        <mxCell id="OZmauiEoAtqxbKcH9Wul-1" value="" style="shape=singleArrow;direction=south;whiteSpace=wrap;html=1;opacity=30;arrowWidth=0.43956043956042706;arrowSize=0.11774891774891785;" vertex="1" parent="1">
          <mxGeometry x="516" y="570" width="38" height="120" as="geometry" />
        </mxCell>
        <mxCell id="sHAHgVAb-YiC9wbnziUG-5" value="" style="ellipse;whiteSpace=wrap;html=1;aspect=fixed;fillColor=#fff2cc;strokeColor=#d6b656;" parent="1" vertex="1">
          <mxGeometry x="324" y="495" width="180" height="180" as="geometry" />
        </mxCell>
        <mxCell id="sHAHgVAb-YiC9wbnziUG-3" value="" style="ellipse;whiteSpace=wrap;html=1;aspect=fixed;fillColor=#ffe6cc;strokeColor=#d79b00;" parent="1" vertex="1">
          <mxGeometry x="354" y="525" width="120" height="120" as="geometry" />
        </mxCell>
        <mxCell id="sHAHgVAb-YiC9wbnziUG-1" value="" style="ellipse;whiteSpace=wrap;html=1;aspect=fixed;fillColor=#f8cecc;strokeColor=#b85450;" parent="1" vertex="1">
          <mxGeometry x="384" y="555" width="60" height="60" as="geometry" />
        </mxCell>
        <mxCell id="oB--57uGbdaJ3v9jcPXn-1" value="Warum" style="text;html=1;align=center;verticalAlign=middle;whiteSpace=wrap;rounded=0;" parent="1" vertex="1">
          <mxGeometry x="384" y="570" width="60" height="30" as="geometry" />
        </mxCell>
        <mxCell id="sHAHgVAb-YiC9wbnziUG-4" value="Wie" style="text;html=1;align=center;verticalAlign=middle;whiteSpace=wrap;rounded=0;" parent="1" vertex="1">
          <mxGeometry x="384" y="610" width="60" height="30" as="geometry" />
        </mxCell>
        <mxCell id="sHAHgVAb-YiC9wbnziUG-6" value="Was" style="text;html=1;align=center;verticalAlign=middle;whiteSpace=wrap;rounded=0;" parent="1" vertex="1">
          <mxGeometry x="384" y="648" width="60" height="30" as="geometry" />
        </mxCell>
        <mxCell id="GiB6mJal0Rt-PtZLRedt-2" value="" style="endArrow=blockThin;html=1;rounded=0;exitX=1;exitY=0.5;exitDx=0;exitDy=0;fillColor=#f8cecc;strokeColor=#b85450;endFill=1;startArrow=oval;startFill=1;" parent="1" source="oB--57uGbdaJ3v9jcPXn-1" edge="1">
          <mxGeometry width="50" height="50" relative="1" as="geometry">
            <mxPoint x="510" y="650" as="sourcePoint" />
            <mxPoint x="540" y="585" as="targetPoint" />
          </mxGeometry>
        </mxCell>
        <mxCell id="GiB6mJal0Rt-PtZLRedt-6" value="" style="endArrow=blockThin;html=1;rounded=0;fillColor=#ffe6cc;strokeColor=#d79b00;endFill=1;exitX=0.767;exitY=0.5;exitDx=0;exitDy=0;exitPerimeter=0;startArrow=oval;startFill=1;" parent="1" source="sHAHgVAb-YiC9wbnziUG-4" edge="1">
          <mxGeometry width="50" height="50" relative="1" as="geometry">
            <mxPoint x="444" y="625" as="sourcePoint" />
            <mxPoint x="540" y="625" as="targetPoint" />
          </mxGeometry>
        </mxCell>
        <mxCell id="GiB6mJal0Rt-PtZLRedt-7" value="2. Vorgehen" style="text;html=1;align=left;verticalAlign=middle;whiteSpace=wrap;rounded=0;" parent="1" vertex="1">
          <mxGeometry x="546" y="610" width="76" height="30" as="geometry" />
        </mxCell>
        <mxCell id="GiB6mJal0Rt-PtZLRedt-9" value="" style="endArrow=blockThin;html=1;rounded=0;fillColor=#fff2cc;strokeColor=#d6b656;endFill=1;exitX=0.767;exitY=0.5;exitDx=0;exitDy=0;exitPerimeter=0;startArrow=oval;startFill=1;" parent="1" edge="1">
          <mxGeometry width="50" height="50" relative="1" as="geometry">
            <mxPoint x="430" y="662.8" as="sourcePoint" />
            <mxPoint x="540" y="662.8" as="targetPoint" />
          </mxGeometry>
        </mxCell>
        <mxCell id="GiB6mJal0Rt-PtZLRedt-10" value="3. Ergebnis" style="text;html=1;align=left;verticalAlign=middle;whiteSpace=wrap;rounded=0;" parent="1" vertex="1">
          <mxGeometry x="546" y="648" width="76" height="30" as="geometry" />
        </mxCell>
        <mxCell id="GiB6mJal0Rt-PtZLRedt-11" value="1. Zweck" style="text;html=1;align=left;verticalAlign=middle;whiteSpace=wrap;rounded=0;" parent="1" vertex="1">
          <mxGeometry x="546" y="570" width="76" height="30" as="geometry" />
        </mxCell>
      </root>
    </mxGraphModel>
  </diagram>
</mxfile>
